<?xml version="1.0" encoding="utf-8"?>
<!-- Generator: Adobe Illustrator 16.0.0, SVG Export Plug-In . SVG Version: 6.00 Build 0)  -->
<!DOCTYPE svg PUBLIC "-//W3C//DTD SVG 1.1//EN" "http://www.w3.org/Graphics/SVG/1.1/DTD/svg11.dtd">
<svg version="1.1" id="Livello_1" xmlns="http://www.w3.org/2000/svg" xmlns:xlink="http://www.w3.org/1999/xlink" x="0px" y="0px"
	 width="187.7px" height="100.5px" viewBox="0 0 187.7 100.5" style="enable-background:new 0 0 187.7 100.5;" xml:space="preserve"
	>
<style type="text/css">
<![CDATA[
	.st0{fill:#FFFFFF;}
]]>
</style>
<path class="st0" d="M66.6,92.4c-6.4-2.1-11.6-7.8-8.7-18c1.9,1.2,4.3,2.2,7.3,2.2c9.7,0,9.5-11.3,9.5-11.3s-1.6,7.5-9.5,7.5
	c-2,0-4.1-1.6-5.7-3.3c6.8-22,16.9-54.8,18.1-58.9c1.3-4.4-1.7-6.1-6-6.4C61.3,3.4,59.5,0,59.5,0h-2.7c0,0,0.9,3.7,5.2,5.5
	c4.3,1.8,6.9,1.8,6.9,1.8s-12.1,20.2-24,40.1l-0.8-1.2c0,0-6.8-13.1-19-13.1c-8.4,0-10.8,10.1-10.8,10.1s3.1-6.7,10.8-6.7
	c7.7,0,15.6,13.4,15.6,13.4l1.4,2.3C34.5,64.8,27.4,76.7,24,82.2C12.8,100.9,0,98.7,0,98.7s14.5,9.3,29-14.4
	c4-6.6,10.1-16.7,16.3-27.1l7.6,11.9c0,0,0.2,0.3,0.5,0.7c-0.5,1.6-0.9,2.9-1.2,3.9c-3.3,11,3.5,18.8,10.6,21.1
	c10.9,3.5,17.6-3.5,17.6-3.5S73.4,94.7,66.6,92.4 M48.2,52.5c11.3-18.9,22.3-37.4,22.3-37.4l0.9-1.6c0,0-10.4,32.2-16.1,50.2
	L48.2,52.5z"/>
<path class="st0" d="M96.3,29c-2.4,0-4.5,1.1-6.8,3.2l13.9-23.9h-6L66.8,61.2h5.9l3.3-5.7c-0.5,3.9,0.8,6.7,5,6.7
	c4.8,0,11.4-3.8,16.1-10.3C106.9,38.3,103.4,29,96.3,29 M93.3,48.7c-4,5.8-8.9,9.8-11.8,9.8c-3.4,0-4.8-4.1,2.4-16.3
	c3.6-6.1,8.8-9.3,11.8-9.3C99.5,32.9,98.6,41.2,93.3,48.7"/>
<path class="st0" d="M124.2,29c-5.2,0-12,4.4-17.4,11.6c-6.5,8.6-7.1,21.6,2.2,21.6c4.8,0,11.1-3.8,16.1-10.1
	C133.2,42,133.2,29,124.2,29 M121.2,48.9c-3.9,5.7-8.7,9.6-11.7,9.6c-4.9,0-2.4-9.2,2.3-16c4-5.8,8.8-9.5,11.7-9.5
	C128.4,32.9,125.9,42.1,121.2,48.9"/>
<path class="st0" d="M139.3,58.4c-2.2,0-4.6-0.7-4.6-3.9c-0.3-6.8,10.4-21.6,17.6-21.6c2.1,0,3,1.9,2.9,3.5l3.1-5.3
	c-0.3-0.4-0.6-0.7-1-1c-3.7-2.7-11.3,0.3-14.7,2.8c-6.1,4.5-10.8,10.7-12.7,18.1c-1.6,6.6,1.9,11.2,6.9,11.2c4.5,0,7.2-2.7,8.7-4.8
	c0.7-0.9,1-1.5,1-1.5c0,0,0,0,0,0c0.4-0.7,0.6-1.2,0.6-1.2S143.3,58.4,139.3,58.4"/>
<path class="st0" d="M176.8,58.5c-3.7,0-3.2-4.3-1.6-6.9l12.6-21.7h-5.9l-2.9,4.9c0-3.4-1.5-5.8-5.4-5.8c-4.8,0-11.4,3.6-16.1,10.1
	c-9.7,13.7-6.3,23.2,0.8,23.2c3.5,0,7-2.5,10.8-6.9c-0.1,4,2,6.9,5.8,6.9c6.8,0,8.4-7.5,8.4-7.5S180.3,58.5,176.8,58.5 M158.9,58.5
	c-3.8,0-2.9-8.5,2.4-16c4-5.8,8.9-9.6,11.8-9.6c3.4,0,4.8,3.9-2.4,16C167,55,161.9,58.5,158.9,58.5"/>
</svg>
